<svg width="80" height="80" viewBox="0 0 80 80" fill="none" xmlns="http://www.w3.org/2000/svg">
<path d="M79.6313 39.6333C77.0521 39.6396 74.4979 39.3938 71.9667 38.8938C69.4375 38.3938 66.9813 37.65 64.5979 36.6646C62.2146 35.6771 59.9521 34.4667 57.8104 33.0312C55.6667 31.5938 53.6854 29.9625 51.8667 28.1333C50.0396 26.3146 48.4063 24.3333 46.9708 22.1917C45.5354 20.0479 44.325 17.7854 43.3375 15.4042C42.35 13.0208 41.6083 10.5646 41.1083 8.03333C40.6083 5.50417 40.3625 2.94792 40.3688 0.36875C40.3688 0.26875 40.3333 0.18125 40.2604 0.108333C40.1896 0.0375003 40.1021 0 40 0C39.8979 0 39.8125 0.0375003 39.7396 0.108333C39.6667 0.18125 39.6313 0.26875 39.6313 0.36875C39.6375 2.94792 39.3917 5.50417 38.8917 8.03333C38.3938 10.5646 37.65 13.0208 36.6625 15.4042C35.675 17.7854 34.4646 20.0479 33.0292 22.1917C31.5938 24.3333 29.9604 26.3146 28.1333 28.1333C26.3146 29.9625 24.3333 31.5938 22.1917 33.0312C20.0479 34.4667 17.7854 35.6771 15.4021 36.6646C13.0208 37.65 10.5625 38.3938 8.03333 38.8938C5.50208 39.3938 2.94792 39.6396 0.36875 39.6333C0.266667 39.6333 0.179166 39.6688 0.108333 39.7396C0.0354165 39.8125 0 39.9 0 40C0 40.1021 0.0354165 40.1896 0.108333 40.2625C0.179166 40.3333 0.266667 40.3688 0.36875 40.3688C2.94792 40.3625 5.50208 40.6083 8.03333 41.1083C10.5625 41.6083 13.0188 42.3521 15.4021 43.3396C17.7854 44.325 20.0479 45.5375 22.1896 46.9729C24.3333 48.4083 26.3146 50.0396 28.1333 51.8688C29.9604 53.6875 31.5938 55.6688 33.0292 57.8104C34.4646 59.9542 35.675 62.2167 36.6625 64.5979C37.65 66.9813 38.3938 69.4375 38.8917 71.9688C39.3917 74.4979 39.6375 77.0542 39.6313 79.6333C39.6313 79.7333 39.6667 79.8208 39.7396 79.8938C39.8125 79.9646 39.8979 80 40 80C40.1021 80 40.1896 79.9646 40.2604 79.8938C40.3333 79.8208 40.3688 79.7333 40.3688 79.6333C40.3688 57.9833 57.9813 40.3688 79.6313 40.3688C79.7333 40.3688 79.8208 40.3333 79.8917 40.2625C79.9646 40.1896 80 40.1021 80 40C80 39.9 79.9646 39.8125 79.8917 39.7396C79.8208 39.6688 79.7333 39.6333 79.6313 39.6333ZM40 74.1771C39.7104 72.0271 39.2458 69.9188 38.6104 67.8458C37.975 65.7729 37.1729 63.7667 36.2083 61.825C35.2438 59.8854 34.1271 58.0354 32.8604 56.2771C31.5917 54.5188 30.1896 52.875 28.6521 51.3458C27.125 49.8104 25.4833 48.4083 23.725 47.1417C21.9688 45.875 20.1208 44.7583 18.1813 43.7938C16.2417 42.8292 14.2354 42.0292 12.1667 41.3938C10.0958 40.7563 7.98542 40.2917 5.83958 40C7.9875 39.7104 10.0958 39.2458 12.1667 38.6083C14.2375 37.9729 16.2417 37.1729 18.1833 36.2083C20.1229 35.2417 21.9708 34.1271 23.7271 32.8583C25.4854 31.5917 27.1271 30.1896 28.6542 28.6542C30.1917 27.1271 31.5917 25.4833 32.8604 23.7271C34.1271 21.9708 35.2417 20.1208 36.2063 18.1813C37.1729 16.2417 37.9729 14.2375 38.6083 12.1667C39.2458 10.0958 39.7083 7.9875 40 5.84167C40.2917 7.9875 40.7563 10.0958 41.3917 12.1667C42.0271 14.2375 42.8292 16.2417 43.7938 18.1813C44.7583 20.1208 45.8729 21.9708 47.1417 23.7271C48.4083 25.4833 49.8104 27.1271 51.3458 28.6542C52.875 30.1917 54.5167 31.5938 56.275 32.8604C58.0333 34.1292 59.8833 35.2458 61.825 36.2104C63.7667 37.175 65.7729 37.975 67.8458 38.6104C69.9167 39.2479 72.0271 39.7104 74.175 40C56.475 42.4292 42.4271 56.4771 40 74.1771Z" fill="#191919"/>
</svg>
