<svg width="35" height="35" viewBox="0 0 35 35" fill="none" xmlns="http://www.w3.org/2000/svg">
<path d="M15.9062 19.5894V17.4248C15.9062 16.8366 15.8385 16.3161 15.7031 15.8633C15.5677 15.4062 15.373 15.0212 15.1191 14.708C14.861 14.3949 14.5457 14.1579 14.1733 13.9971C13.8052 13.832 13.3841 13.7495 12.9102 13.7495C12.4404 13.7495 12.0194 13.832 11.647 13.9971C11.2788 14.1579 10.9678 14.3949 10.7139 14.708C10.4557 15.0212 10.259 15.4062 10.1235 15.8633C9.98812 16.3161 9.92041 16.8366 9.92041 17.4248V19.5894C9.92041 20.1776 9.98812 20.7002 10.1235 21.1572C10.259 21.61 10.4557 21.9909 10.7139 22.2998C10.972 22.6172 11.2873 22.8563 11.6597 23.0171C12.0321 23.1737 12.4531 23.252 12.9229 23.252C13.3968 23.252 13.8179 23.1715 14.186 23.0107C14.5542 22.8499 14.8652 22.613 15.1191 22.2998C15.373 21.9909 15.5677 21.61 15.7031 21.1572C15.8385 20.7002 15.9062 20.1776 15.9062 19.5894ZM11.1011 19.3545C11.1011 19.2445 11.1011 19.1366 11.1011 19.0308C11.1011 18.925 11.1011 18.8192 11.1011 18.7134V17.1646C11.1011 16.7329 11.1434 16.3542 11.228 16.0283C11.3169 15.6982 11.4502 15.4295 11.6279 15.2222C11.776 15.0571 11.9559 14.9323 12.1675 14.8477C12.3833 14.7588 12.6309 14.7144 12.9102 14.7144C13.1852 14.7144 13.4264 14.7546 13.6338 14.835C13.8454 14.9154 14.0231 15.036 14.167 15.1968C14.3151 15.3534 14.4315 15.5501 14.5161 15.7871C14.605 16.0199 14.6663 16.2886 14.7002 16.5933L11.1011 19.3545ZM14.7256 19.8369C14.7256 20.2897 14.679 20.6833 14.5859 21.0176C14.4971 21.3519 14.3553 21.6227 14.1606 21.8301C14.0168 21.9824 13.8411 22.0988 13.6338 22.1792C13.4264 22.2596 13.1895 22.2998 12.9229 22.2998C12.6689 22.2998 12.4404 22.2638 12.2373 22.1919C12.0342 22.1157 11.8607 22.0057 11.7168 21.8618C11.5602 21.7095 11.4333 21.5169 11.3359 21.2842C11.2386 21.0472 11.1709 20.7743 11.1328 20.4653L14.7256 17.7168C14.7256 17.8353 14.7256 17.9855 14.7256 18.1675C14.7256 18.3452 14.7256 18.4658 14.7256 18.5293V19.8369ZM22.7207 23.125V13.8828H22.6255L19.1279 15.2285V16.3013L21.5464 15.3809V23.125H22.7207Z" fill="#191919"/>
<rect x="1" y="1.125" width="33" height="33" rx="16.5" stroke="black"/>
</svg>
