<svg width="35" height="35" viewBox="0 0 35 35" fill="none" xmlns="http://www.w3.org/2000/svg">
<path d="M15.9062 19.5894V17.4248C15.9062 16.8366 15.8385 16.3161 15.7031 15.8633C15.5677 15.4062 15.373 15.0212 15.1191 14.708C14.861 14.3949 14.5457 14.1579 14.1733 13.9971C13.8052 13.832 13.3841 13.7495 12.9102 13.7495C12.4404 13.7495 12.0194 13.832 11.647 13.9971C11.2788 14.1579 10.9678 14.3949 10.7139 14.708C10.4557 15.0212 10.259 15.4062 10.1235 15.8633C9.98812 16.3161 9.92041 16.8366 9.92041 17.4248V19.5894C9.92041 20.1776 9.98812 20.7002 10.1235 21.1572C10.259 21.61 10.4557 21.9909 10.7139 22.2998C10.972 22.6172 11.2873 22.8563 11.6597 23.0171C12.0321 23.1737 12.4531 23.252 12.9229 23.252C13.3968 23.252 13.8179 23.1715 14.186 23.0107C14.5542 22.8499 14.8652 22.613 15.1191 22.2998C15.373 21.9909 15.5677 21.61 15.7031 21.1572C15.8385 20.7002 15.9062 20.1776 15.9062 19.5894ZM11.1011 19.3545C11.1011 19.2445 11.1011 19.1366 11.1011 19.0308C11.1011 18.925 11.1011 18.8192 11.1011 18.7134V17.1646C11.1011 16.7329 11.1434 16.3542 11.228 16.0283C11.3169 15.6982 11.4502 15.4295 11.6279 15.2222C11.776 15.0571 11.9559 14.9323 12.1675 14.8477C12.3833 14.7588 12.6309 14.7144 12.9102 14.7144C13.1852 14.7144 13.4264 14.7546 13.6338 14.835C13.8454 14.9154 14.0231 15.036 14.167 15.1968C14.3151 15.3534 14.4315 15.5501 14.5161 15.7871C14.605 16.0199 14.6663 16.2886 14.7002 16.5933L11.1011 19.3545ZM14.7256 19.8369C14.7256 20.2897 14.679 20.6833 14.5859 21.0176C14.4971 21.3519 14.3553 21.6227 14.1606 21.8301C14.0168 21.9824 13.8411 22.0988 13.6338 22.1792C13.4264 22.2596 13.1895 22.2998 12.9229 22.2998C12.6689 22.2998 12.4404 22.2638 12.2373 22.1919C12.0342 22.1157 11.8607 22.0057 11.7168 21.8618C11.5602 21.7095 11.4333 21.5169 11.3359 21.2842C11.2386 21.0472 11.1709 20.7743 11.1328 20.4653L14.7256 17.7168C14.7256 17.8353 14.7256 17.9855 14.7256 18.1675C14.7256 18.3452 14.7256 18.4658 14.7256 18.5293V19.8369ZM20.2832 17.939V18.8911H21.1211C21.4131 18.8911 21.6797 18.925 21.9209 18.9927C22.1663 19.0604 22.3758 19.1641 22.5493 19.3037C22.7186 19.4434 22.8498 19.619 22.9429 19.8306C23.0402 20.0379 23.0889 20.2855 23.0889 20.5732C23.0889 20.8652 23.0465 21.1191 22.9619 21.335C22.8815 21.5465 22.7651 21.7243 22.6128 21.8682C22.4604 22.012 22.2764 22.12 22.0605 22.1919C21.8447 22.2596 21.6035 22.2935 21.3369 22.2935C21.0703 22.2935 20.827 22.2554 20.6069 22.1792C20.3911 22.103 20.207 21.9951 20.0547 21.8555C19.9023 21.7158 19.7839 21.5465 19.6992 21.3477C19.6188 21.1488 19.5786 20.9287 19.5786 20.6875H18.4043C18.4043 21.0938 18.4805 21.4556 18.6328 21.7729C18.7894 22.0903 18.9989 22.359 19.2612 22.5791C19.5236 22.7992 19.8325 22.9663 20.188 23.0806C20.5477 23.1948 20.9307 23.252 21.3369 23.252C21.7516 23.252 22.1367 23.1927 22.4922 23.0742C22.8519 22.9515 23.1629 22.7738 23.4253 22.541C23.6877 22.3125 23.8929 22.0311 24.041 21.6968C24.1891 21.3625 24.2632 20.9795 24.2632 20.5479C24.2632 20.3363 24.2378 20.1226 24.187 19.9067C24.1405 19.6909 24.0579 19.4857 23.9395 19.291C23.8167 19.0964 23.6538 18.9207 23.4507 18.7642C23.2518 18.6076 23.0021 18.4806 22.7017 18.3833C22.9513 18.2775 23.165 18.1463 23.3428 17.9897C23.5247 17.8289 23.6729 17.6576 23.7871 17.4756C23.9014 17.2979 23.986 17.1138 24.041 16.9233C24.096 16.7329 24.1235 16.5488 24.1235 16.3711C24.1235 15.9437 24.0558 15.5671 23.9204 15.2412C23.785 14.9154 23.5946 14.6424 23.3491 14.4224C23.1037 14.2023 22.8096 14.0373 22.4668 13.9272C22.124 13.813 21.7453 13.7559 21.3306 13.7559C20.9032 13.7559 20.5138 13.8236 20.1626 13.959C19.8156 14.0902 19.5173 14.27 19.2676 14.4985C19.0179 14.7313 18.8232 15.0042 18.6836 15.3174C18.5482 15.6263 18.4805 15.9564 18.4805 16.3076H19.6611C19.6611 16.0664 19.7013 15.8485 19.7817 15.6538C19.8621 15.4591 19.9764 15.292 20.1245 15.1523C20.2684 15.0127 20.4419 14.9069 20.645 14.835C20.8524 14.7588 21.0809 14.7207 21.3306 14.7207C21.5887 14.7207 21.8172 14.7546 22.0161 14.8223C22.2192 14.8857 22.3885 14.9831 22.5239 15.1143C22.6636 15.2497 22.7694 15.4211 22.8413 15.6284C22.9132 15.8315 22.9492 16.0706 22.9492 16.3457C22.9492 16.5785 22.909 16.7922 22.8286 16.9868C22.7482 17.1815 22.6318 17.3486 22.4795 17.4883C22.3229 17.6279 22.1304 17.738 21.9019 17.8184C21.6776 17.8988 21.4173 17.939 21.1211 17.939H20.2832Z" fill="#191919"/>
<rect x="1" y="1.125" width="33" height="33" rx="16.5" stroke="black"/>
</svg>
