<svg width="35" height="35" viewBox="0 0 35 35" fill="none" xmlns="http://www.w3.org/2000/svg">
<path d="M15.9062 19.5894V17.4248C15.9062 16.8366 15.8385 16.3161 15.7031 15.8633C15.5677 15.4062 15.373 15.0212 15.1191 14.708C14.861 14.3949 14.5457 14.1579 14.1733 13.9971C13.8052 13.832 13.3841 13.7495 12.9102 13.7495C12.4404 13.7495 12.0194 13.832 11.647 13.9971C11.2788 14.1579 10.9678 14.3949 10.7139 14.708C10.4557 15.0212 10.259 15.4062 10.1235 15.8633C9.98812 16.3161 9.92041 16.8366 9.92041 17.4248V19.5894C9.92041 20.1776 9.98812 20.7002 10.1235 21.1572C10.259 21.61 10.4557 21.9909 10.7139 22.2998C10.972 22.6172 11.2873 22.8563 11.6597 23.0171C12.0321 23.1737 12.4531 23.252 12.9229 23.252C13.3968 23.252 13.8179 23.1715 14.186 23.0107C14.5542 22.8499 14.8652 22.613 15.1191 22.2998C15.373 21.9909 15.5677 21.61 15.7031 21.1572C15.8385 20.7002 15.9062 20.1776 15.9062 19.5894ZM11.1011 19.3545C11.1011 19.2445 11.1011 19.1366 11.1011 19.0308C11.1011 18.925 11.1011 18.8192 11.1011 18.7134V17.1646C11.1011 16.7329 11.1434 16.3542 11.228 16.0283C11.3169 15.6982 11.4502 15.4295 11.6279 15.2222C11.776 15.0571 11.9559 14.9323 12.1675 14.8477C12.3833 14.7588 12.6309 14.7144 12.9102 14.7144C13.1852 14.7144 13.4264 14.7546 13.6338 14.835C13.8454 14.9154 14.0231 15.036 14.167 15.1968C14.3151 15.3534 14.4315 15.5501 14.5161 15.7871C14.605 16.0199 14.6663 16.2886 14.7002 16.5933L11.1011 19.3545ZM14.7256 19.8369C14.7256 20.2897 14.679 20.6833 14.5859 21.0176C14.4971 21.3519 14.3553 21.6227 14.1606 21.8301C14.0168 21.9824 13.8411 22.0988 13.6338 22.1792C13.4264 22.2596 13.1895 22.2998 12.9229 22.2998C12.6689 22.2998 12.4404 22.2638 12.2373 22.1919C12.0342 22.1157 11.8607 22.0057 11.7168 21.8618C11.5602 21.7095 11.4333 21.5169 11.3359 21.2842C11.2386 21.0472 11.1709 20.7743 11.1328 20.4653L14.7256 17.7168C14.7256 17.8353 14.7256 17.9855 14.7256 18.1675C14.7256 18.3452 14.7256 18.4658 14.7256 18.5293V19.8369ZM24.5806 23.125V22.1665H19.9404L22.4224 19.4751C22.6551 19.2212 22.8752 18.9673 23.0825 18.7134C23.2941 18.4552 23.4803 18.195 23.6411 17.9326C23.7977 17.6702 23.9225 17.4058 24.0156 17.1392C24.1087 16.8683 24.1553 16.5954 24.1553 16.3203C24.1553 15.9521 24.0897 15.6115 23.9585 15.2983C23.8315 14.9852 23.6475 14.7144 23.4062 14.4858C23.165 14.2573 22.8688 14.0796 22.5176 13.9526C22.1706 13.8215 21.7791 13.7559 21.3433 13.7559C20.8693 13.7559 20.4461 13.832 20.0737 13.9844C19.7056 14.1367 19.3945 14.342 19.1406 14.6001C18.8825 14.8582 18.6857 15.1608 18.5503 15.5078C18.4149 15.8506 18.3472 16.2166 18.3472 16.606H19.5278C19.5278 16.3182 19.5638 16.0579 19.6357 15.8252C19.7119 15.5924 19.8262 15.3936 19.9785 15.2285C20.1266 15.0677 20.3128 14.9429 20.5371 14.854C20.7656 14.7651 21.0343 14.7207 21.3433 14.7207C21.5972 14.7207 21.8236 14.7651 22.0225 14.854C22.2256 14.9386 22.3991 15.055 22.543 15.2031C22.6826 15.3512 22.7884 15.5269 22.8604 15.73C22.9365 15.9289 22.9746 16.1426 22.9746 16.3711C22.9746 16.5573 22.9513 16.7393 22.9048 16.917C22.8582 17.0905 22.7799 17.2746 22.6699 17.4692C22.5599 17.6681 22.4139 17.884 22.2319 18.1167C22.05 18.3494 21.8236 18.616 21.5527 18.9165L18.5249 22.2808V23.125H24.5806Z" fill="#191919"/>
<rect x="1" y="1.125" width="33" height="33" rx="16.5" stroke="black"/>
</svg>
